<svg xmlns="http://www.w3.org/2000/svg" viewBox="0 0 241 86"><path fill="#FFF" fill-rule="evenodd" d="M30.59 20.64c.327.933.49 1.867.49 2.8 0 2.053-1.003 3.08-3.01 3.08H12.95c0 1.913-.023 3.15-.07 3.71l-.28 5.11c0 .467-.07 1.12-.21 1.96 2.193-.933 4.363-1.4 6.51-1.4 4.293 0 7.712 1.283 10.255 3.85 2.543 2.567 3.815 6.312 3.815 11.235 0 4.923-1.552 8.808-4.655 11.655-3.103 2.847-7.035 4.27-11.795 4.27S7.607 65.44 4.06 62.5c.373-1.867 1.353-3.407 2.94-4.62 3.267 2.287 6.347 3.43 9.24 3.43s5.227-.898 7-2.695c1.773-1.797 2.66-4.387 2.66-7.77s-.875-5.822-2.625-7.315c-1.75-1.493-3.943-2.24-6.58-2.24s-5.215 1.073-7.735 3.22c-.607-.093-1.237-.373-1.89-.84-.653-.467-1.12-.957-1.4-1.47l.98-21.07.49-.49h23.45zm39.62 39.34c0 1.167-.047 2.053-.14 2.66-.373 2.24-1.843 3.36-4.41 3.36H43.82c-1.867-1.633-2.8-3.08-2.8-4.34 0-3.92 2.94-8.377 8.82-13.37l6.79-5.95c3.64-3.127 5.46-6.37 5.46-9.73 0-2.193-.665-3.943-1.995-5.25S57.12 25.4 55.16 25.4c-1.96 0-3.698.618-5.215 1.855s-2.695 2.858-3.535 4.865c-2.427-.187-4.06-.98-4.9-2.38 1.073-2.847 2.858-5.227 5.355-7.14 2.497-1.913 5.6-2.87 9.31-2.87 3.71 0 6.79 1.202 9.24 3.605s3.675 5.518 3.675 9.345c0 2.193-.455 4.247-1.365 6.16-.91 1.913-1.89 3.418-2.94 4.515-1.05 1.097-2.532 2.462-4.445 4.095l-5.39 4.69c-4.153 3.547-6.51 6.323-7.07 8.33 3.127-.327 6.16-.49 9.1-.49h13.23zm34.02-31.85l-7.63 8.12c-.887.933-1.75 1.68-2.59 2.24 3.827.093 7 1.272 9.52 3.535 2.52 2.263 3.78 5.658 3.78 10.185s-1.575 8.108-4.725 10.745c-3.15 2.637-6.848 3.955-11.095 3.955-5.6 0-10.197-1.517-13.79-4.55.42-1.867 1.423-3.407 3.01-4.62 3.173 2.38 6.323 3.57 9.45 3.57 3.127 0 5.577-.852 7.35-2.555 1.773-1.703 2.66-3.99 2.66-6.86s-.723-5.04-2.17-6.51c-1.447-1.47-3.243-2.205-5.39-2.205s-3.943.397-5.39 1.19c-1.353-.607-2.287-1.843-2.8-3.71l9.03-9.8c1.4-1.587 2.987-3.127 4.76-4.62l-.28-.28c-1.913.42-4.643.63-8.19.63H79.66c-.28-.793-.42-1.727-.42-2.8 0-1.073.21-2.123.63-3.15h24.29c.98 1.773 1.47 3.22 1.47 4.34 0 1.12-.467 2.17-1.4 3.15zM135 20h1v46h-1zm33.056 2.432l.016 1.952v1.456c.17-.01.41-.016.72-.016h3.232c.053.235.08.456.08.664 0 .208-.027.435-.08.68h-3.232c-.31 0-.55-.005-.72-.016V32c-.213.043-.48.064-.8.064-.32 0-.587-.02-.8-.064V21.168l.112-.096h6.272c.064.192.096.405.096.64 0 .49-.304.736-.912.736h-2.4c-.757 0-1.285-.005-1.584-.016zm7.76 4.096c0 .555.04 1.067.12 1.536.08.47.213.93.4 1.384.187.453.47.81.848 1.072.38.26.813.392 1.304.392.49 0 .904-.09 1.24-.272.336-.18.603-.413.8-.696.197-.283.355-.62.472-1.016.213-.683.32-1.392.32-2.128 0-.736-.037-1.336-.112-1.8-.075-.464-.205-.923-.392-1.376-.187-.453-.472-.81-.856-1.072-.384-.26-.848-.392-1.392-.392-.544 0-1.005.13-1.384.392-.38.26-.66.62-.848 1.072-.187.453-.32.912-.4 1.376-.08.464-.12.973-.12 1.528zm.016 4.72c-1.13-.98-1.696-2.552-1.696-4.712 0-2.16.565-3.73 1.696-4.712.725-.64 1.637-.96 2.736-.96 1.1 0 2.01.32 2.736.96 1.14.98 1.712 2.552 1.712 4.712 0 2.16-.57 3.73-1.712 4.712-.725.64-1.637.96-2.736.96-1.1 0-2.01-.32-2.736-.96zm13.616-4.944h2.464c.416 0 .712.088.888.264.176.176.264.44.264.792v4.16c-1.195.46-2.5.688-3.92.688-.8 0-1.5-.152-2.096-.456-.597-.304-1.06-.723-1.392-1.256-.672-1.045-1.008-2.34-1.008-3.888 0-.98.133-1.85.4-2.608.267-.757.63-1.355 1.088-1.792.907-.896 1.973-1.344 3.2-1.344 1.46 0 2.7.395 3.712 1.184-.085.5-.352.9-.8 1.2-.864-.672-1.84-1.008-2.928-1.008-.896 0-1.62.352-2.176 1.056-.555.704-.832 1.813-.832 3.328 0 2.827 1.04 4.24 3.12 4.24.747 0 1.445-.096 2.096-.288v-1.872c0-.47.005-.805.016-1.008h-1.472c-.5 0-.752-.24-.752-.72 0-.192.043-.416.128-.672zm7.152.224c0 .555.04 1.067.12 1.536.08.47.213.93.4 1.384.187.453.47.81.848 1.072.38.26.813.392 1.304.392.49 0 .904-.09 1.24-.272.336-.18.603-.413.8-.696.197-.283.355-.62.472-1.016.213-.683.32-1.392.32-2.128 0-.736-.037-1.336-.112-1.8-.075-.464-.205-.923-.392-1.376-.187-.453-.472-.81-.856-1.072-.384-.26-.848-.392-1.392-.392-.544 0-1.005.13-1.384.392-.38.26-.66.62-.848 1.072-.187.453-.32.912-.4 1.376-.08.464-.12.973-.12 1.528zm.016 4.72c-1.13-.98-1.696-2.552-1.696-4.712 0-2.16.565-3.73 1.696-4.712.725-.64 1.637-.96 2.736-.96 1.1 0 2.01.32 2.736.96 1.14.98 1.712 2.552 1.712 4.712 0 2.16-.57 3.73-1.712 4.712-.725.64-1.637.96-2.736.96-1.1 0-2.01-.32-2.736-.96zm8.512-.24c.053-.512.283-.923.688-1.232 1.11.725 2.18 1.088 3.216 1.088.65 0 1.168-.147 1.552-.44.384-.293.576-.675.576-1.144 0-.736-.507-1.328-1.52-1.776l-1.872-.8c-1.46-.64-2.192-1.563-2.192-2.768 0-.875.333-1.605 1-2.192.667-.587 1.55-.88 2.648-.88 1.1 0 2.192.272 3.28.816-.02.512-.22.933-.592 1.264-1.003-.5-1.856-.752-2.56-.752s-1.237.147-1.6.44c-.363.293-.544.64-.544 1.04s.117.717.352.952.576.448 1.024.64l1.856.784c1.59.704 2.384 1.696 2.384 2.976 0 .95-.33 1.717-.992 2.304-.66.587-1.656.88-2.984.88s-2.568-.4-3.72-1.2zM168.04 42.824l.992-.016h3.072c.053.245.08.47.08.672 0 .203-.027.427-.08.672h-3.072c-.416 0-.747-.005-.992-.016v2.784c0 .085-.003.21-.008.376-.005.165-.008.296-.008.392.3-.032.645-.048 1.04-.048h4.192c0 .277-.01.485-.032.624-.096.5-.437.752-1.024.752h-4.816c-.277 0-.5-.088-.664-.264-.165-.176-.248-.42-.248-.728v-9.856l.096-.096h6.384c.032.16.048.37.048.632 0 .26-.037.504-.112.728h-3.856c-.427 0-.763-.005-1.008-.016l.016 1.04v2.368zm7.216 6.16l.848-10.912c.245-.043.597-.064 1.056-.064.46 0 .805.02 1.04.064l1.6 5.152c.085.245.203.672.352 1.28.15.608.24 1.013.272 1.216h.096c.107-.672.32-1.504.64-2.496l1.584-5.152c.267-.043.62-.064 1.056-.064.437 0 .784.02 1.04.064l.848 10.912c-.224.064-.483.096-.776.096-.293 0-.54-.02-.744-.064l-.4-6.032c-.075-1.205-.117-2.272-.128-3.2h-.096l-2.256 7.536c-.224.043-.5.064-.824.064-.325 0-.59-.02-.792-.064l-2.272-7.536h-.096c-.064 1.835-.107 2.9-.128 3.2l-.384 6.032c-.213.043-.47.064-.768.064-.3 0-.555-.032-.768-.096zm-2.832 9.8v-.376c0-.22-.06-.507-.184-.864-.123-.357-.365-.675-.728-.952-.363-.277-.82-.416-1.376-.416-.864 0-1.52.373-1.968 1.12-.448.747-.672 1.816-.672 3.208 0 1.392.24 2.46.72 3.2.48.74 1.163 1.112 2.048 1.112s1.824-.41 2.816-1.232c.427.277.693.624.8 1.04-.46.47-1.035.85-1.728 1.144-.693.293-1.416.44-2.168.44-.752 0-1.403-.157-1.952-.472-.55-.315-.984-.74-1.304-1.272-.608-1.056-.912-2.347-.912-3.872 0-1.888.41-3.315 1.232-4.28.82-.965 1.83-1.448 3.024-1.448 1.195 0 2.147.31 2.856.928.71.62 1.064 1.344 1.064 2.176 0 .608-.304.912-.912.912-.192 0-.41-.032-.656-.096zm4.72 1.744c0 .555.04 1.067.12 1.536.08.47.213.93.4 1.384.187.453.47.81.848 1.072.38.26.813.392 1.304.392.49 0 .904-.09 1.24-.272.336-.18.603-.413.8-.696.197-.283.355-.62.472-1.016.213-.683.32-1.392.32-2.128 0-.736-.037-1.336-.112-1.8-.075-.464-.205-.923-.392-1.376-.187-.453-.472-.81-.856-1.072-.384-.26-.848-.392-1.392-.392-.544 0-1.005.13-1.384.392-.38.26-.66.62-.848 1.072-.187.453-.32.912-.4 1.376-.08.464-.12.973-.12 1.528zm.016 4.72c-1.13-.98-1.696-2.552-1.696-4.712 0-2.16.565-3.73 1.696-4.712.725-.64 1.637-.96 2.736-.96 1.1 0 2.01.32 2.736.96 1.14.98 1.712 2.552 1.712 4.712 0 2.16-.57 3.73-1.712 4.712-.725.64-1.637.96-2.736.96-1.1 0-2.01-.32-2.736-.96zm10.896-8.288h-.064c.085 1.45.128 2.725.128 3.824V66c-.245.043-.493.064-.744.064-.25 0-.5-.02-.744-.064V55.088c.3-.053.627-.08.984-.08s.67.02.936.064l3.488 6.832c.16.31.363.733.608 1.272.245.54.405.877.48 1.016v.016l.048-.016c-.085-1.344-.128-2.66-.128-3.952v-4.224c0-.363.06-.62.184-.776.123-.155.35-.232.68-.232h.512l.112.08v10.896c-.3.053-.63.08-.992.08-.363 0-.677-.02-.944-.064l-3.504-6.832c-.32-.63-.667-1.365-1.04-2.208zm12.672-.56l.016 1.184V66c-.224.043-.493.064-.808.064-.315 0-.58-.02-.792-.064v-9.6l-.912.016h-1.936c-.043-.203-.064-.424-.064-.664 0-.24.02-.467.064-.68h7.28c.064.18.096.395.096.64 0 .47-.3.704-.896.704h-1.12l-.912-.016h-.016zm6.16 3.424l.992-.016h3.072c.053.245.08.47.08.672 0 .203-.027.427-.08.672h-3.072c-.416 0-.747-.005-.992-.016v2.784c0 .085-.003.21-.008.376-.005.165-.008.296-.008.392.3-.032.645-.048 1.04-.048h4.192c0 .277-.01.485-.032.624-.096.5-.437.752-1.024.752h-4.816c-.277 0-.5-.088-.664-.264-.165-.176-.248-.42-.248-.728v-9.856l.096-.096h6.384c.032.16.048.37.048.632 0 .26-.037.504-.112.728h-3.856c-.427 0-.763-.005-1.008-.016l.016 1.04v2.368zm13.152-4.752c.14-.053.368-.08.688-.08.32 0 .587.048.8.144l.048.112-3.072 4.976 3.424 5.536c-.33.235-.693.352-1.088.352-.395 0-.725-.213-.992-.64l-2.4-3.888L214.776 66c-.16.053-.397.08-.712.08-.315 0-.59-.048-.824-.144l-.048-.112 3.456-5.552-3.056-4.96c.33-.235.69-.352 1.08-.352.39 0 .717.213.984.64l2.048 3.328 2.336-3.856zm6.912 1.328l.016 1.184V66c-.224.043-.493.064-.808.064-.315 0-.58-.02-.792-.064v-9.6l-.912.016h-1.936c-.043-.203-.064-.424-.064-.664 0-.24.02-.467.064-.68h7.28c.064.18.096.395.096.64 0 .47-.3.704-.896.704h-1.12l-.912-.016h-.016zm5.616 4.128c0 .555.04 1.067.12 1.536.08.47.213.93.4 1.384.187.453.47.81.848 1.072.38.26.813.392 1.304.392.49 0 .904-.09 1.24-.272.336-.18.603-.413.8-.696.197-.283.355-.62.472-1.016.213-.683.32-1.392.32-2.128 0-.736-.037-1.336-.112-1.8-.075-.464-.205-.923-.392-1.376-.187-.453-.472-.81-.856-1.072-.384-.26-.848-.392-1.392-.392-.544 0-1.005.13-1.384.392-.38.26-.66.62-.848 1.072-.187.453-.32.912-.4 1.376-.08.464-.12.973-.12 1.528zm.016 4.72c-1.13-.98-1.696-2.552-1.696-4.712 0-2.16.565-3.73 1.696-4.712.725-.64 1.637-.96 2.736-.96 1.1 0 2.01.32 2.736.96 1.14.98 1.712 2.552 1.712 4.712 0 2.16-.57 3.73-1.712 4.712-.725.64-1.637.96-2.736.96-1.1 0-2.01-.32-2.736-.96z"/></svg>