<svg xmlns="http://www.w3.org/2000/svg" viewBox="0 0 40 50"><path fill="#F95428" d="M5.858 35.355L20 50l14.142-14.645c7.81-8.088 7.81-21.2 0-29.29-7.81-8.087-20.474-8.087-28.284 0-7.81 8.09-7.81 21.202 0 29.29z"/><path fill="#E6E6E6" d="M34.143 20.71c0 8.09-6.332 14.646-14.143 14.646-7.81 0-14.142-6.557-14.142-14.645C5.858 12.625 12.19 6.068 20 6.068s14.143 6.557 14.143 14.645z"/><path fill="#CCC" d="M10.658 20.71c0-8.087 4.182-14.644 9.342-14.644-7.81 0-14.142 6.557-14.142 14.645 0 8.09 6.332 14.646 14.142 14.646-5.16 0-9.342-6.556-9.342-14.644z"/><path fill="#F95428" d="M18.585 10.237c0 8.96-6.124 7.444-5.99 13.51.074 3.424 2.858 5.385 5.982 5.766-.75-.896-4.052-5.358 1.073-8.937.164 3.45 2.93 3.998 2.93 6.48 0 1.045-.214 1.746-.46 2.21 2.578-.698 4.763-2.56 5.118-5.657.932-8.136-8.653-13.374-8.653-13.374z"/></svg>